<svg xmlns="http://www.w3.org/2000/svg" viewBox="0 0 641.32 580.9"><defs><style>.cls-1,.cls-2{fill:#2f3131;stroke-miterlimit:10;}.cls-1{stroke:#af3417;}.cls-2{stroke:#2f3131;}</style></defs><g id="Layer_2" data-name="Layer 2"><g id="Layer_1-2" data-name="Layer 1"><path class="cls-1" d="M640.52,480.89c-.76-.73-1.83,0-2.69.32-4.31,1.62-8.61,3.3-12.91,5a5.71,5.71,0,0,1-2.06.57c-1.46,0-2-.68-1.65-2.1.22-.85.55-1.66.77-2.51.11-.48.39-1.09-.59-1.45l-2.15,4.2h0a2.62,2.62,0,0,1-2.09,0c-3.5-1.26-6.34-3.63-9.4-5.61a1.66,1.66,0,0,1-.47-2.33,15.43,15.43,0,0,1,1.9-3,1.12,1.12,0,0,0,.08-1.53c-.49-.54-1-.27-1.49.07-.1.12-.19.25-.3.37-.62.65-1.29,1.3-2.24.66s-.64-1.36-.4-2.16a6.68,6.68,0,0,0,.5-2.3,2,2,0,0,0,0-.43h0c.77-2.47.77-2.47,3.92-2.62-4.83-2.86-3.27-6.76-2.19-10.58-1.55.32-1.61.33-1.79-.47-.26-1.15-.42-2.33-.63-3.5a10.87,10.87,0,0,0-.05,3.73,20.92,20.92,0,0,1,.15,2.86c0,.73-.11,1.48-1,1.75s-1.37-.21-1.81-.84c-.64-.91-1.28-1.83-1.9-2.76a3.92,3.92,0,0,0-2.41-1.85,8,8,0,0,1-2.93-1.56h0a19.25,19.25,0,0,0-2.86-3.38c-.3-1.87.64-3.33,1.56-4.8,1.81-2.91,3.64-5.8,5.41-8.72.33-.55,1.07-1.35.21-1.84-.7-.41-1,.55-1.33,1-1.26,1.94-2.47,3.9-3.71,5.85-.42.67-.86,1.34-1.33,2a.66.66,0,0,1-1.2-.52,10.59,10.59,0,0,0,.39-3.54h0a17.17,17.17,0,0,0,.37-1.87,17.55,17.55,0,0,0,.12-4.52c-.09-.47-.31-1-.91-.91s-.56.5-.65.88a19.94,19.94,0,0,0-.89,4.92h0l-.46,1c-.16,0-.42.08-.46,0-1-1.88-2.49-3.54-2.88-5.74l-.14.21a.77.77,0,0,1,.14-.21c.94-1.39.89-3,1.25-4.58.2-.86.31-1.82,1.32-2.11,1.34-.39,2.31-1.41,3.54-2,.92-.87,0-2,.46-3,1.06-2.49,1.78-5.14,2.85-7.61a7.33,7.33,0,0,0,.6-4.34c1.34-1.62,1.34-1.62,3,0,.36.51.81,1.22,1.43.57s-.08-1.07-.62-1.41h0l-.39-.46a1.9,1.9,0,0,0-.94-1.48,3.31,3.31,0,0,0-1.45-2.4,4.09,4.09,0,0,0-.45-2.45h0a4.42,4.42,0,0,1-.48-1.86h0c1-.24,2-.11,3.08-.75a26.68,26.68,0,0,1-2.52-4.38,4.78,4.78,0,0,0-1.52-2.08,2.72,2.72,0,0,0-1.49-2.86h0c-.78-1.62-.18-3.2.15-4.78a12.71,12.71,0,0,0,1.45-4.27h0c.7-1.22.76-2.65,1.32-3.92l1.42.53h0l.38.48a3.34,3.34,0,0,0,1,1.47h0l.37.45h0c1.63,2.84,3.7,5.37,5.59,8,3.47,4.87,6.8,9.81,9,15.43,1.18,4.67,4.39,11.39,6.14,12.22-.83-4.32-2.7-8.26-4.55-12.22a.84.84,0,0,0-.2-.43h0c-1.77-3.38-3.44-6.81-5.33-10.13-3.47-6.09-7-12.14-11-17.88-.32-.46-.62-.93-.89-1.41a1.61,1.61,0,0,1,.22-2.18c1.69-1.53,1.24-3.5,1.14-5.37-.05-.95-.68-1.24-1.51-.78a18.24,18.24,0,0,0-2.84,1.76,1.86,1.86,0,0,1-2.74-.11,43,43,0,0,1-4.35-4.08,1.78,1.78,0,0,0-1.5-1.08l-1.74-1.05h0l-.59-.4c-.72-1.13-.19-1.72.86-2.18a67.36,67.36,0,0,0,7.5-4.11c1.43-.84,2.87-1.69,4.36-2.41,1.18-.57,1.45-.35,1.66,1,0,.31,0,.63.06.94,0,.7-.14,1.41.92,1.36h0a4.09,4.09,0,0,0,1-2.87,4.86,4.86,0,0,1,3.33-4.51,18.93,18.93,0,0,1,1.94-.91,3.44,3.44,0,0,0,2.41-2.12,2,2,0,0,0,1.41-1h0a13.63,13.63,0,0,0,.66-1.25c.41-1,0-1.43-1-1.63-1.91-.39-2.15-.31-3.52,1.86h0a3.07,3.07,0,0,0-1.82,1.06h0c-.76.41-1.47,1.14-2.42.38v-1.8h0c.94-1.74-.5-2.57-1.38-3.61s-1.83-.58-2.8-.17a54.61,54.61,0,0,0-5.46,2.2,1.29,1.29,0,0,1-1,.36,7,7,0,0,0,1-.36c-1.57.05-1.2-.88-.88-1.77h0c.43-.47.9-.9,1.29-1.4,1.93-2.43,3.82-4.89,5.75-7.32,1.24-1.56,1.61-1.54,2.18.35a3.24,3.24,0,0,0,2.42,2.36.76.76,0,0,0,.87-.14.74.74,0,0,0,.07-.89,19.68,19.68,0,0,1-1.67-3.42c-.19-.68-.54-1.39,0-2s1.43-.44,2.21-.18a16.3,16.3,0,0,0,5.11,1.07,41.89,41.89,0,0,0,14.76-2.39,67.4,67.4,0,0,0,14.27.12c.45,0,1,.23,1.25-.35a1.31,1.31,0,0,0-.52-1.49,14.36,14.36,0,0,0-4.44-2.72c-4.23-1.32-8.62-1.4-13-1.8h0a23.29,23.29,0,0,0-6.17.48h0a.92.92,0,0,1,.28-1.27c1.37-.78,1.4-2,1.16-3.3a45.11,45.11,0,0,1-1-11.36c.12-1.51,0-3,.06-4.54h0a24.57,24.57,0,0,0,.21-8.07,5,5,0,0,1,.32-2.78c4-8,6.31-16.67,10-24.82a.73.73,0,0,0,.19-.29,3,3,0,0,0,.32-1.59,2.73,2.73,0,0,0-.23.4.71.71,0,0,1,.24-.4c.15-1.55-.6-2.89-1.05-4.31h0c0-.31,0-.62,0-.94h0c-.74-2.69,0-5.11,1.17-7.54a38.58,38.58,0,0,0,2.91-8.3,3.22,3.22,0,0,0-.19-2.79c-.23.43-.41.61-.44.82-.51,3.69-2.34,6.91-3.61,10.32-.27.73-.55,1.59-1.67,1.19a.57.57,0,0,0-.11.11h0l.11-.11a14.5,14.5,0,0,0-1-4.26h0l-.48-2.41a4.61,4.61,0,0,0-.44-2.42h0a12.73,12.73,0,0,0-.46-3.06c-1.18-5-2.61-9.87-3.09-15a6.54,6.54,0,0,0-.85-2.48,3.56,3.56,0,0,0-1.51-1.49c-.6-.3-1.22-.47-1.73.16a1.21,1.21,0,0,0,0,1.55,6.35,6.35,0,0,1,1.09,1.84c.17.69-.24.83-.81.81h0l-.47-.52h0c-.14-.32-.27-.65-.41-1-1.48.11-2.68.87-2.71,2.31,0,1.28,0,2.23-1.21,3-.62.42-.28,1.32-.09,2a18.94,18.94,0,0,0,1.64,3.16c.4,1.46.39,1.46-1.05,1.51h0l-.45-.42a2.37,2.37,0,0,0-2-1.49h-.87l-.5-.49a9.65,9.65,0,0,0-2.88-2.88h0c-1-.78-1.92-1.91-3.36-1.07-2.29,1.32-5,1.58-7.28,3a3.93,3.93,0,0,1-2.79.31c-.79-.14-1.58-.23-2.37-.34a1.1,1.1,0,0,0-.72-.23c-.21-.07-.43-.13-.64-.18-1-.24-2.51.41-3-.86s1.08-1.61,1.5-2.52a5,5,0,0,0,2.48-1.37,1,1,0,0,0,.35-1.06,1.22,1.22,0,0,0-1.12-.76,2.86,2.86,0,0,0-1.58.46c-.85.44-1.68.91-2.53,1.35s-1.82.44-2.23-.55c-.71-1.74-2.3-2.1-3.75-2.68-2.07-.83-2.43-.62-3.25,1.62h0c-1.6.65-3.18,1-4.7-.2a.56.56,0,0,0-.14-.16l.21-.14h0c0,.1,0,.2-.07.3l1.92-.7h0c1.27-.24,1.64-1,1.24-2.17-.2-.57-.5-1.1-.75-1.65h0a12.45,12.45,0,0,1-.94-1.38,1.73,1.73,0,0,0-1.76-1,38.82,38.82,0,0,0-8.54.88,30.07,30.07,0,0,1-4.44,1c-1,.08-2.45,1.12-3-.24-.38-1,.92-1.66,1.8-2.23s.67-1.05-.21-1.32c-1.89-.6-3.83-1.41-5.54.49a7.57,7.57,0,0,1-1.37,1h0c-.79-.35-.74-.85-.27-1.45s.67-1.07-.17-1.46h0a3.27,3.27,0,0,0-3,.35,12.17,12.17,0,0,0-3.28,2.33,6.37,6.37,0,0,1-3.23,1.93c-4.32.69-7.63,3.34-11.18,5.54h0l-.53.37a5.43,5.43,0,0,0-1.78,1.16c-1.35,1.06-2,1-3.31-.2a3,3,0,0,1-1-2.77h0c1.82-.81,3.65-1.6,5.46-2.44a4.28,4.28,0,0,0,2.73-2.93c-1.06-.15-1.72.46-2.5.57h0c-2.33.2-4.39,1.39-6.64,1.87-2,.43-2.05.43-1.91-1.72,0-.32.06-.65-.27-.83a.72.72,0,0,0-.87.19c-.44.45-.83.95-1.24,1.44a6.18,6.18,0,0,1-2.34,2c-1,.41-1.5,0-1.61-1h0c.25-.6.46-1.19-.46-1.41a6,6,0,0,1-.7.12,5.45,5.45,0,0,0-4.34,1.79,3.41,3.41,0,0,1-4.1.93c-.11-.38-.18-.78-.32-1.14-.68-1.75-1.24-2-2.83-1.05-1,.62-2,1.36-2.95,2.05a.86.86,0,0,0-.17.13c-2.08.73-4.05,2-6.43,1.06-.64-.25-1.72-.86-2.08.19-.28.83.83,1,1.43,1.29,1,.56,1,.81.13,1.45-.39.27-.83.49-1.24.73h0c-1.81,0-2.82,1.19-3.78,2.48-1.2.76-2.4,1.52-3.61,2.27-.34.21-.74.4-1.09.06s-.13-.73,0-1.1c.63-1.52,1.69-2.87,1.87-4.58h0l1.4-2.39c.57-.42,1.49-.74,1.66-1.29.67-2.19,2.55-2.11,4.19-2.53.78-.2,1.71-.15,2.29-1.1-1.18-.58-2.16.1-3.16.08-.4,0-.86,0-1.08-.35s.06-.92.41-1.23c1.38-1.2,2.8-2.36,4.18-3.56.5-.44,1.55-.83,1-1.58s-1.28.07-1.85.44a8.24,8.24,0,0,0-.91.77c-1.61,1.43-3.3,2.78-4.79,4.32-1.82,1.87-4.1,2.3-6.5,2.54a1.31,1.31,0,0,1-1.65-1.26.76.76,0,0,0,.13-.2,36.33,36.33,0,0,1,8-8.85,31.26,31.26,0,0,0,3-3.05c.34-.37.77-.86.21-1.49-.22.07-.5.09-.64.23-4,4.11-8.58,7.66-12.39,12-1.84,2.08-3.85,4.07-5,6.66h0a17.7,17.7,0,0,0-2.93,4.71c-1.57,2-2.65,4.57-5.54,5.2-.95.21-1.72,1.67-2.7.91-.81-.63.16-1.78.1-2.71a5.35,5.35,0,0,0,.75-.58c1-1.13.91-1.5-.55-1.84a31.32,31.32,0,0,0-3.94-.82,12,12,0,0,0-7.77,1.32,3.75,3.75,0,0,0-1.93.95h0l-3.33,1.48a.65.65,0,0,1-.48-1h0l.86-.59a1.6,1.6,0,0,0,1.49-.95h0c.3-.32.59-.64.89-1h0a3,3,0,0,0,1.57-1.34h0a4.79,4.79,0,0,0,1.39-1.51,4.63,4.63,0,0,1,3.27-3.65,1.05,1.05,0,0,0,.52-.46.77.77,0,0,0,.1-.63.65.65,0,0,0-.59-.25,6.38,6.38,0,0,0-1.33.47,88.94,88.94,0,0,0-9.16,5h0c-2.15,1-4.24,2.08-6.45,2.86a6.91,6.91,0,0,0-3.62,2.45h0c-3,1.66-6,3.31-9,5-1.2.67-2.32,1.18-3.32-.3-.23-.34-.7-.33-1.11-.35-1.26,0-2.53.07-3.8.08-2,0-2,0-2.52-1.86-.28-1.09-.51-2.2-1.81-2.55a3.41,3.41,0,0,0-3.75-1.2,3.55,3.55,0,0,1-2.48-.25h0a2.49,2.49,0,0,0-1.93-1.92,4.22,4.22,0,0,0-2.4-1.93h0a6.6,6.6,0,0,0-1.55-1.48A211.2,211.2,0,0,1,379,208.59c-1.61-1.54-3.37-2.92-5.09-4.33-.94-.78-2-1.09-3-.14s-2,.52-2.95-.25h0a2.49,2.49,0,0,0,0-.47c-.17-.68.23-1.91-.93-1.76s-.92,1.29-.83,2.16a2,2,0,0,0,.73,1.45c1.48,1.15,2.64,2.71,4.36,3.56h0c.74,1.07,2.07,1.38,2.95,2.27h0c-.08,1.24-.92,1.45-1.93,1.44a3.48,3.48,0,0,0-2.41-.94l-1-.44h0a22.07,22.07,0,0,1-7.25-5.65c-.22-.24-.46-.45-.69-.67a2.28,2.28,0,0,0-3-.45,2.77,2.77,0,0,0-1.49.89l.1.15h0l-.09-.16a6.59,6.59,0,0,1-6.49-1,58.7,58.7,0,0,0-7.58-4c-3.64-1.81-7.88-1.91-11.34-4.22-1-.66-2-.2-2.37,1.09h0a1.94,1.94,0,0,0,0,2h0a5.9,5.9,0,0,0,3.36,1.93h0a56,56,0,0,0,7.21,3.85h0a18.62,18.62,0,0,0,5.23,2.86h0c1.82,1,3.65,1.94,5.45,2.95a4.64,4.64,0,0,0,4.11.52,2.55,2.55,0,0,1,3.26,1.25c.65,1,1.38,1.95,2.07,2.93h0l.77,1.45c.72,1.3.57,1.72-.86,1.81a18.53,18.53,0,0,0-4.18.69c-2.33.69-3.91,2-3.91,4.65h0a7,7,0,0,1-4.89,2.08,22.6,22.6,0,0,0-6.54,1.24h0c-1.51.14-3,.29-4.52.41-.74.06-1.5,0-1.65-.94a3.4,3.4,0,0,1,3.13-3.42,13.06,13.06,0,0,0,3.24,0c0-.49-.54-1,0-1.53.33-.33,1.11-.46.71-1.24-1.11-.1-2,.55-3,.71s-1.49-.15-1.33-1.27a2.23,2.23,0,0,1,.55-1.3,1.94,1.94,0,0,0,1-1.89,2.89,2.89,0,0,0,.22-.95c.23-1.36-.19-2.12-1.61-2.69-2.07-.82-4.07-1.79-6.1-2.69a2.18,2.18,0,0,0-2.73.23,24.58,24.58,0,0,0,5.51,3,3.12,3.12,0,0,1,2.33,2.15h0a71.43,71.43,0,0,0-4.31,7.68h0c-2.21,1.68-5,2.3-7.29,3.72h0a3.62,3.62,0,0,0-1.94.94,43.37,43.37,0,0,0-8.68,4.25,1.91,1.91,0,0,0-.27.16l-.06,0h0c-.5.24-1,.5-1.51.73-2.14,1-2.43.92-4.15-.74-1.34-1.29-2.25-1.07-3,.71a3,3,0,0,1-3.24,2.22,5.35,5.35,0,0,1-2.66-1c-1.09-.61-1.12-1,0-1.62,1.69-.9,3.49-1.61,5.14-2.56.88-.5,2.64-.8,2-2.13-.46-1-1.88-.11-2.82.18-2.67.81-5.24,2-8.12,1.92a2.67,2.67,0,0,0-.88.34c-1.6,3.15-3.38,3.81-6.71,2.4a4.37,4.37,0,0,0-3.44-.11c-2.19.82-2.63.53-3.29-1.81.58-1,1.66-1.66,2-2.85a3.36,3.36,0,0,0-1-4.88,10.62,10.62,0,0,0-6.16-2.33c-7.59,0-15.18,0-22.77,0a64.51,64.51,0,0,0-6.9.7c-.53.06-1.2.24-1.16,1s.63.93,1.19,1a23.12,23.12,0,0,0,3.11.13,143.83,143.83,0,0,1,16.74.69c3.09.23,6.08,1.3,9.23,1.34,1.75,0,2.89.91,2.44,1.58-.8,1.17-1.92.79-3,.31-.37-.35-.81-.59-1.28-.29s-.39.81-.15,1.27h0l.38.5a2.72,2.72,0,0,0,1.13,1.33h0l0,0h0c-.1.95-.59,1.44-1.57,1.28a5.39,5.39,0,0,1-3.35-1.55,12.49,12.49,0,0,0-1.53-1.47,1,1,0,0,0-1.76.31l-.46.51a3.11,3.11,0,0,1-2.78-1,6,6,0,0,0-1.11-.88.83.83,0,0,0-1.08,0,.74.74,0,0,0-.19.87,3.51,3.51,0,0,1-.1,3h0c-1.5,1.05-2.75,2.42-4.47,3.16-1.14.48-2.15.65-3-.38a2.67,2.67,0,0,0-3.95-.6c-1.35.84-1.81.48-2.48-1.29a1.4,1.4,0,0,0,.14-.27c.35-.72,0-1.14-.8-1.56a5.42,5.42,0,0,0-5.59-.1h0a5.63,5.63,0,0,0-.71,0c-3.66.68-7.32,1.34-11,2.06-1.3.25-2.48.5-3.26-1-.63-1.26-1.52-.79-2.34-.14l-1.9,1.47a15.71,15.71,0,0,0-4.79,1h0c-.44,0-1,.42-1.29.06s.21-.64.36-1l1.3-1.05c.23-1.06,0-1.3-1-1.07l-.37.09-4.79,2.93c-1.61.23-2.7,1.67-4.33,1.87-2.12.26-4.24.58-6.36.88a2.25,2.25,0,0,1-2.31-.88h0c.81-.5,1.61-1,2.43-1.5,2.39-1.42,5-2.46,7.19-4.23h0a12.74,12.74,0,0,0,4-1.86,47.09,47.09,0,0,1,7-3.4h0a1.4,1.4,0,0,0,1.46-1.42h0c.57-2.08.47-2.3-1.32-3-.37-.14-.74-.26-1.11-.39h0a2.66,2.66,0,0,0-2.92.18c-1.08.68-2.23,1.24-3.32,1.91-6.38,3.92-13.05,7.35-19.53,11.1-.71.41-1.48.92-2.23.43-1.52-1-2.54-.08-3.63.73-1.85-1.56-1.28-3.74-1.45-5.73.16-.16.31-.33.47-.5h0c5.31-.76,7.68-1.43,9-2.61-1.83-.58-3.49,0-5.14.35-3.74.92-3.75.93-3.81-2.83,0-1.39-.07-2.72-1.41-3.56h0a14.12,14.12,0,0,0-1.26-1.08c-1.64-1.07-2.75-.82-3.77.84a6.17,6.17,0,0,0-.74,3.21c0,1.43,0,2.87-.07,4.29-.14,1.88-1,2.51-2.9,2.07a19.1,19.1,0,0,1-4.23-1.58c-3.39-1.72-6.86-3.32-10.08-5.36-2.13-1.5-5-1.56-6.92-3.5-.28-.28-.9-.28-1.37-.3a60.71,60.71,0,0,0-13.46.91,6.43,6.43,0,0,0-2.81.43l.14.22h0l-.11-.23a32.29,32.29,0,0,0-8.24,1.86.49.49,0,0,0-.39.13c-.39,0-.78.11-1.18.13-.75,0-1.74.79-2.16-.09s.69-1.28,1.26-1.75c1.17-1,2.39-1.87,3.56-2.82.4-.32.66-.74.11-1.17a5.12,5.12,0,0,0-6,0c-.94.73-1.81,1.56-2.71,2.35a8.38,8.38,0,0,0-3.78,3.41,2,2,0,0,0-1,1.35h0l-.49.49h0a11.76,11.76,0,0,1-7.57-.9c-3.84-1.67-7.7-3.43-12-3.38l-1.33-1h0c-1.16-2.23-3.17-3.52-5.26-4.68-.88-.5-1.81-.47-2.07.7s-1.3.92-2,1.33a2.83,2.83,0,0,0,1.95,1.15A4.81,4.81,0,0,1,88,218.08c1.37,1.2,1.35,1.46-.09,2.45a8.78,8.78,0,0,1-3.3,1.32,12.43,12.43,0,0,0-4.81,2c-1.43,1-2.72,2.08-1.74,4.33a2,2,0,0,1-1.62,3c-2.82.49-5.65.95-8.48,1.4q-1.18.19-2.37.27c-.92.06-1.36-.43-1.18-1.32A6.4,6.4,0,0,1,65,230a94.78,94.78,0,0,1,5.1-9.73c1.62.06,1.61.06,1.17-1.33-.22-.68-.36-1.39-.57-2.07-.27-.85.23-2.22-1-2.38-1-.13-1.29,1.07-1.67,1.81-2.78,5.31-6.22,10.24-9,15.54a2.93,2.93,0,0,1-2.56,1.85,3.36,3.36,0,0,0-2.69,1.36c-.52.38-1.13.74-.47,1.49h0c.37.12.74.27,1.12.37,1.64.43,1.72.54,1,2s-1.54,3.12-2.34,4.66c-.22.42-.53.87-1.09.69s-.62-.72-.57-1.19c.1-1,.32-2,.43-3a1.16,1.16,0,0,0-.59-1.2c-.5-.29-.92,0-1.28.3a4.54,4.54,0,0,0-1.49,2.09h0c-1.3,1.19-1.42,2.79-1.43,4.4,0,2,0,4,0,6,0,.46-.12,1-.76,1s-.58-.52-.59-.91c-.1-2.55-1.23-5-1-7.56,0-.51,0-1-.59-1.17a1.24,1.24,0,0,0-1.41.65,2.91,2.91,0,0,0-.42,1.6c0,1.28.1,2.54.18,3.81.14,2.52,1,5,.19,7.57h0A6.37,6.37,0,0,0,41.34,262a10.51,10.51,0,0,1-.11,4.22,1,1,0,0,0-.16.31,3.61,3.61,0,0,0-.34,1.59h0v0a3.48,3.48,0,0,0-.78,2.45c.34,2.13-.08,4.29.32,6.39a10.69,10.69,0,0,1,.11,4.47,2.87,2.87,0,0,0,.82,3.05h0l2.1,3.3H40.51a3.21,3.21,0,0,0-1.86.29c-.45.28-.67.66-.33,1.18a6,6,0,0,0,6.28,2.37c2.13.32,3.27,1.21,3.23,3.09,0,3.08.58,6.2-.32,9.25-.11.36-.11.6.16.83.76.65.65,1.57.78,2.43.62,3.94.77,7.95,1.84,11.82h0a3.77,3.77,0,0,0,.46,2,3.29,3.29,0,0,0,1,1.83l2.42,4.27A55.15,55.15,0,0,1,58,334.82a.57.57,0,0,0,.39.53h0c.24.65.68,1.24.3,2a1.7,1.7,0,0,0,.7,2.28c.5.8.75,1.88,2,1.8h0a4.82,4.82,0,0,0,1.3,1.54l.4.47h0c.35.81.94,1.65-.3,2.25h0a2.6,2.6,0,0,0-2.12-.56,9,9,0,0,0,.8,2.89,14.72,14.72,0,0,0,.75,1.74h0a4.43,4.43,0,0,0,1,2.29c.33,1.23,1.47,1.75,2.29,2.54s1.67,1.43,1.56,2.7l-.46.44a1.34,1.34,0,0,0-.39.07,4.32,4.32,0,0,0-.19.45,4.19,4.19,0,0,0,.36,4.5c1.2,1.5.87,2.67-.18,4-.9-.57-1-1.5-1.25-2.29-1-2.79-1.85-5.6-2.82-8.38-.21-.6-.24-1.78-1.12-1.48s-.13,1.24,0,1.89a7.46,7.46,0,0,0,.35.89c1.88,5.42,3.77,10.83,5.63,16.26.2.57.58,1.17.19,1.79-.83.58-1.48-1.12-2.11-.26s.17,1.65.5,2.44a3.68,3.68,0,0,0,.58.75,1.85,1.85,0,0,1,.07,1.59c-1.33,3-1.47,6.22-1.58,9.44h0c-.48,2.72-.95,5.43-1.43,8.15-.43,1.77-.74,3.56-2.13,4.94a1.57,1.57,0,0,0-.35,2,1.25,1.25,0,0,1,.11,1.14c-1.23,2.8.33,4.69,1.83,6.6.17.24.36.49.56.73,1.21,1.12,2.27,2.28,1.36,4.12,0,.12.32.45.51.68C65,419,63.7,419.87,64,421.05a12.18,12.18,0,0,1,.39,4.65c-.11.94.6,1,1.25.59.85-.57,1.62-1.25,2.42-1.89s1.35-.87,2,0a1.92,1.92,0,0,0,.93,1.49c.83,1,1.77,1.87,1.86,3.26h0l-.84,1.1h0c-1.46,1.42-1.78,3.53-3.05,5.06a1.5,1.5,0,0,0,.25,2.44c1.73,1.31,2,3,1.25,4.87l-.51,1h0a21.58,21.58,0,0,0-4.52,6.62.79.79,0,0,0,.22,1.06c.44.24.76-.12.95-.47s.4-1,.68-1.51c1.08-1.81,1.91-3.85,4.13-4.65h0a9.24,9.24,0,0,1-.1,3.19h0L70,450.38h0a5.45,5.45,0,0,0-1.19,2.33c-.65,2.05-1.3,4.11-1.92,6.17-.36,1.21-.89,2.33-2.17,2.66-3.25.84-6.37,2.15-9.69,2.69a62.48,62.48,0,0,0-10.7,2.58c-2.94,1-6,1.79-9,2.55a122.52,122.52,0,0,0-12.48,4.16,53.54,53.54,0,0,0-12.71,7.12,24.64,24.64,0,0,0-3.13,2.91c-2.2,2.26-3.24,5.07-4.43,7.87a29.07,29.07,0,0,0-1.46,17.36c1.2,6.1,3.23,12,3.85,18.26a37.75,37.75,0,0,0,4.54,15c1.76,3.11,3.4,6.24,6.39,8.55a48.93,48.93,0,0,0,9,5A78.79,78.79,0,0,0,44,562.5c3.3.67,6.47,1.79,9.76,2.42,12.95,2.52,26.11,3.47,39.15,5.28a209.78,209.78,0,0,1,26.3,5.21,69.19,69.19,0,0,0,10.82,2c4.44.49,8.88,1,13.33,1.32,2.95.18,5.86.7,8.84.61,3.26-.1,6.52-.22,9.77-.51s6.53-.49,9.8-.53c5.74-.07,11.32-1.63,17.11-1.54,2.59,0,5.25-.36,7.88-.31,3,0,6-.53,9.06,0,1.57.27,3.08.79,4.67,1,5,.72,10,.8,15,1.67a66.27,66.27,0,0,0,16.93,1.06c4.64-.4,9.26-.27,13.88-.39.48,0,1,0,1.44,0,6.84-.6,13.69-1,20.56-.93,2.22,0,4.46,0,6.67-.25,4.46-.4,8.95,0,13.39-.67,1.1-.16,2.19.32,3.33.22,3.41-.28,6.83-.52,10.25-.69a17,17,0,0,1,4.78.15,24.36,24.36,0,0,0,8.08,0c4.45-.48,8.9-.44,13.34-.68,4.22-.23,8.45.09,12.69,0,8-.13,16,.11,23.92-.16a96,96,0,0,0,11.22-.69,49.31,49.31,0,0,1,7.39-.58c3.84,0,7.64-.56,11.46-.75,2.14-.1,4.3-.17,6.45-.4,6.18-.64,12.39-1.11,18.57-1.8,3.72-.41,7.51-.25,11.18-1.17a15.91,15.91,0,0,1,3.09-.37c4.44-.21,8.87-1.1,13.34-.37a4.51,4.51,0,0,0,1.67-.14,17.14,17.14,0,0,1,4.29-.31c4.93.16,9.87.26,14.8.53,2.78.15,5.57.14,8.34.23,5.74.19,11.48.51,17.22.15a78.47,78.47,0,0,0,11.16-1.29c3.15-.65,6.31-.74,9.46-1.11,3.33-.38,6.69-.27,10-1.1s6.56-1.39,9.86-2c2-.39,4.1-.64,6.15-1,8-1.3,15.57-4.74,23.72-5.59,5.4-2.24,11.35-2.47,16.8-4.58,1.85-.72,3.68-1.54,5.61-2.08a51.1,51.1,0,0,0,12.66-5c3.16-1.88,6.42-3.58,8.32-7a9.31,9.31,0,0,1,2.56-3.13c2.43-1.74,3.87-4.22,5.47-6.6,2.73-4.08,5-8.35,5.6-13.34a6.49,6.49,0,0,1,.83-2.49,51.17,51.17,0,0,1,3.89-6,34.91,34.91,0,0,0,2.4-3.58,1.74,1.74,0,0,0,.11-2,1.77,1.77,0,0,0-2-.51c-1.16.28-2.3.68-3.45,1-.53.16-1.11.36-1.58-.11s-.19-1,0-1.55.5-1,.72-1.51c.94-2.13.73-2.86-1.46-3.65a17.39,17.39,0,0,1-5-3.25c-1.16-.94-1.08-1.4.14-2.43.24-.2.51-.38.77-.57h0a3.66,3.66,0,0,0,2.36-1,6.35,6.35,0,0,0,3.83-1.47h0l5.77-2.37h0c1.25-.25,1.57-1.28,1.74-2.3S641.29,481.64,640.52,480.89ZM296.93,243.72h0Zm231.59,30h0l0,0Zm5.36.64.06,0a.16.16,0,0,0,0,.07C534,274.69,533.8,274.49,533.88,274.36ZM370.79,532l-.05,0s0,0,0,0h0l0,0ZM180,288.24h0ZM500.77,491.62l0-.07h0ZM233.51,341.4l0,.06h-.08Zm51.41-1.79h0Zm185.65,69.06ZM343.09,367c.22.11.22.34.18.61l-.11-.19C343.14,367.26,343.11,367.12,343.09,367Zm107.78,36.43h0l0-.05ZM289.2,399.76h0l0,0Zm110.93,57.72h0a.5.5,0,0,0-.11.17A.69.69,0,0,1,400.13,457.48Zm-227-74.72-.09,0a.13.13,0,0,0,0-.06ZM450.52,465.3l-.06,0h.08Zm20.05-56.62Zm0,0h0l0,0,0,0h0Zm-319-12h0v-.05h0ZM221.1,353h0Zm-41.87-18.38a1.74,1.74,0,0,1,0-.81,6.26,6.26,0,0,0,.25.72A.93.93,0,0,1,179.23,334.65ZM450,371.3h0Zm0,0h0v0h0ZM221.11,353h0s0-.06,0-.09l0,0ZM479.17,473.45l0,0h0v.07Zm20.18-39.38h0l.05-.06,0,0Zm-48.44,71ZM289.69,335.69h0ZM211,482.72s0,0-.05,0h0a1.51,1.51,0,0,1-.43,0A1,1,0,0,1,211,482.72Zm157.82,7,0,0,0-.05h0v0h0l0-.05v0l.12-.22a1.33,1.33,0,0,1-.16.34h0Zm-89.4,15.48a2.17,2.17,0,0,0,.2.29h-.09A.82.82,0,0,1,279.45,505.22ZM488.3,492.56ZM319,322.37v0ZM438.41,309.9Zm62.36,181.74v0h0Zm-308.92,20.6h0l-.06,0,.08,0Zm27.85-13.92h0s0,0,0,0h0Zm212.1,14.25-.09.15a.76.76,0,0,0,0-.15ZM282,321.87l0,0v0l-.07-.06ZM219.7,498.31h0l0,.05h0ZM181.34,288.37s0,0,0,.06l-.13-.05Zm121.25,22.17,0,0h-.06Zm249-24.21,0,0h0S551.62,286.34,551.61,286.33ZM96.86,484.47h0Zm198.5-191.15a1.86,1.86,0,0,1,.34.06h-.33Zm76.85,246.81c.08,0,.13,0,.13,0s0,0,0,0-.09,0-.19,0ZM528.14,274v0l0,0h0a1.33,1.33,0,0,1,.28-.16,1.91,1.91,0,0,0-.27.16h0Zm-165.07-.07h0l.05,0v0Zm-195.16-3.79h0Zm-51.8-8.7v0l.06,0ZM526.23,527.84l.08,0h0Zm.18,0a.65.65,0,0,1,.16.09h0Zm29-185.93h0l0,0h0Zm0,0ZM90.38,402.91h0ZM138.19,552.6v0l.24.22h2.27c-.7.05-1.39.12-2.08.2l-.89.07A1.41,1.41,0,0,0,138.19,552.6Zm432.68-27.29-.09-.07h.08A.17.17,0,0,1,570.87,525.31Zm-418,28.22a28.2,28.2,0,0,0-3-.59l5,.19c3.23.14,6.46.08,9.69.12h-6C156.58,553.25,154.74,554,152.83,553.53Zm37.85-.61c-2.26.58-4.58.33-6.87.32h-6.55C181.73,553,186.2,553.14,190.68,552.92Zm4.33-.32c1.46-.17,2.93-.24,4.41-.3a32.34,32.34,0,0,1-6.22.46Zm13-.8.44,0a26.31,26.31,0,0,1-6,.45C204.31,552.13,206.17,552,208,551.8Zm10.25,0c-.44,0-.87,0-1.31-.07Zm5,.13-.34,0A2,2,0,0,1,223.26,551.92ZM100.18,244.25h0Zm50.87,313.36c-6.39.19-12.76-.33-19.11-.66-5.34-.27-10.72-1-16.06-1.61-4.36-.52-8.85-.78-13.18-1.38-5.48-.76-11.19-.6-16.46-2.67L94,552.51c.71.59,1.68-.1,2.4.48,1,0,2.07.2,3.09.26,3.28.18,6.49.87,9.74,1.19,3.49.33,7,.09,10.46.84a7.18,7.18,0,0,0,1.67.1c4.49-.16,8.85,1,13.32,1.2,3.63.16,7.3-.38,10.91.44.36.09.78-.12,1.18-.12a23,23,0,0,1,4.07,0,34.86,34.86,0,0,0,6.12.35C155,557.39,153,557.55,151.05,557.61ZM84.88,375v0l-.07.08h0ZM268.41,565.5c-1.29,0-2.58,0-3.87,0C265.83,565.48,267.12,565.5,268.41,565.5Zm26.15-10.31a5.38,5.38,0,0,1,2.46-3.12,3.93,3.93,0,0,0-.79,2.31c0,1.17-.88,1.49-1.86,1.83a9,9,0,0,1-1.18.32A2,2,0,0,0,294.56,555.19Zm-15.34,9.94c-1.82,0-3.65,0-5.47.13A32.23,32.23,0,0,1,279.22,565.13ZM249.41,557a100.89,100.89,0,0,1-10.3-.43,111.67,111.67,0,0,0-12.53-.47c-3.56-.06-7.1-.37-10.69-.3-2.82.06-5.72-.08-8.54.09-4.07.24-8.17.13-12.23.68-1.17.16-2.34-.43-3.55,0-4.29,1.31-8.76.83-13.12.9s-8.56.55-12.93,0c-.45-.06-.9-.1-1.35-.14,4.86,0,9.72,0,14.57-.37,1.85-.15,3.64.52,5.49.25,4.11-.6,8.24-.93,12.38-1.16a84.54,84.54,0,0,1,9.79-.47c5,.29,10-.25,15,.37a11.69,11.69,0,0,0,3.58-.21,17.85,17.85,0,0,1,6.91.08,20.58,20.58,0,0,0,3.75.27c3.18,0,6.37-.33,9.55.34a20.87,20.87,0,0,0,5,.42c3.26-.11,6.51.28,9.76.49C256.44,557.29,252.92,557.08,249.41,557Zm80.12,7.52c1-1.93,2.46-3.39,4.85-2.82,2.06.5,4.11.05,6.09,0,4.75-.2,9.52-.33,14.27-.42,6.73-.14,13.48,0,20.21-.19,5-.17,10,.15,15-.36h.48c5,.15,9.79-1,14.71-1.29,6.27-.38,12.46-1.49,18.76-1.73a41.8,41.8,0,0,0,5.8-.14,138.67,138.67,0,0,1,16-2c6.33-.39,12.68-1.19,19-.83,2.32.12,4.61-.47,6.83-.11a33.53,33.53,0,0,0,6.4.26c2.53-.06,5-.63,7.57-.35a50.83,50.83,0,0,0,12-.17c6.35-.79,12.76-.4,19.09-1.3a8.56,8.56,0,0,1,3,.35c-.72.15-1.44.3-2.16.39a6.08,6.08,0,0,1-2,.47,21.54,21.54,0,0,1-2.73.44c-.48,0-1,0-1.44,0-.75,0-1.5,0-2.25,0a6.32,6.32,0,0,0-.76.11c-2.88.49-5.79.24-8.69.34l-.78,0a31.4,31.4,0,0,1-7.31.45c-1.28,0-2.55,0-3.83,0-1,0-1.95,0-2.93,0h-8.84a19.78,19.78,0,0,1-2.88,0l-.7,0a15.27,15.27,0,0,1-3.81-.39,3.82,3.82,0,0,0-.68,0c-.77.09-1.51.35-2.29.39l-.65,0a9.82,9.82,0,0,1-3.2,0h-3.51c-.25,0-.49,0-.73,0a15,15,0,0,1-3.27.41c-.73,0-1.47,0-2.2,0s-1.68.34-2.54.39a10.61,10.61,0,0,1-1.12.05H445.2c-2.89.41-5.81.57-8.71.73-3.83.2-7.57,1.14-11.4,1.11a45.82,45.82,0,0,0-10.29.72c-3.42.77-6.86.87-10.29,1.32-2.66.35-5.34.38-8,.64-5.31.54-10.63.23-15.94.5-3.33.17-6.69.61-10.09.6s-6.68-.36-10-.16c-2.74.17-5.53-.37-8.29-.12-4.68.42-9.31,1.24-14.05.48a8.63,8.63,0,0,0-6.18,1.39,7.09,7.09,0,0,1-3.41,1.37ZM601,286.34h0ZM365.52,232.2ZM310.68,564.38a5,5,0,0,0-1.52-.53c-4.93-.35-9.79-1.29-14.67-2-3.54.31-6.89-.92-10.37-1.2a44.36,44.36,0,0,1-8.17-1.53,7.08,7.08,0,0,0-5.68.45,2.38,2.38,0,0,0-1.08-1.37c-1-.28-2.11-.15-3.08-.64-.36-.07-.73-.17-1.09-.26h.24c2.26-.23,4.46.56,6.71.48.14-.95-.49-1.15-1.08-1.38a15.7,15.7,0,0,1,2,.42h1c.72-.57,1.62,0,2.37-.35-.15.76.78.43,1,.83h1a17.08,17.08,0,0,0,2.88,1c1.65.91,3.58.27,5.27,1h3.3c-.28.76.58.78,1.08.9,1.57.37,3.18.57,4.74,1,4.15.24,8.1,2,12.33,1.71a4.09,4.09,0,0,1,1.81.49,18.65,18.65,0,0,0,3.6,1.16v.38c-.58,0-1.16,0-1.74,0a1,1,0,0,0-.28.13A1.36,1.36,0,0,0,310.68,564.38Zm9.74.6h.44l-.58.07Zm1.09-.8a2.72,2.72,0,0,1,.69.52l-.1,0c-.4.11-.79.18-1.19.25A2.3,2.3,0,0,0,321.51,564.18ZM65.72,336.72h0ZM302.36,567.19c-.07-.58-.49-.75-1-.85a1.38,1.38,0,0,0,.49-.79,7.94,7.94,0,0,0,1.85.78A2.92,2.92,0,0,0,302.36,567.19Zm277.09-124v0l0,0ZM309,566.63l-.07.09h0l-1.39-.12c.72-.06,1.44-.16,2.16-.29A3,3,0,0,0,309,566.63Zm1.39-.68.59.19a4.41,4.41,0,0,0-.81.05A.56.56,0,0,0,310.38,566Zm-.52,1.9h.49a3.85,3.85,0,0,1,1.14-.2c.44.06.89.08,1.33.11-1.09.11-2.19.22-3.29.31Zm10.08,0h.48l.15-.07a3.44,3.44,0,0,0,.63.44,29,29,0,0,1-5.8-.37C316.91,567.86,318.43,567.82,319.94,567.86ZM47,280.1s0,0,0,0l0,0Zm135.52-41.21-.22,0,.22-.12Zm114.44,4.83ZM182.79,220.78a.29.29,0,0,0,0-.09h0l.06.06Zm439,266.52,0,0-.06,0Zm.82-247.37h0l.12-.09ZM409.9,234a1,1,0,0,1-.54-.83A3.72,3.72,0,0,0,409.9,234Zm-37.66-21.48a9.11,9.11,0,0,0,1.08.33,2.17,2.17,0,0,1-1.08-.33Zm-58,20.18h0Z"/><path class="cls-2" d="M399.08,150.12c-2.94-49.95-21.83-67.08-43-78-11.65-6-41.27-2.53-68.54.36a71.58,71.58,0,0,0-11.46-22.36l-51-49-1,20s22.91,18,25,27c1.48,6.36-6.65,24.12-7.85,26.68-28.59-1.45-71.62-7-82.15-.68-19.7,11.93-39.66,35-41,78-1,32,15.31,62.7,32,74,21.31,14.44,61,11.37,101.47,10.77,42.05-.61,84.86.72,108.53-11.77C378.77,215.26,401.08,184.12,399.08,150.12Zm-97-39s24.52,10.86,23,18c-2.36,11.09-44,11-44,11Zm-49,33,10,26-18-2Zm-60-31,37,27s-42.16,1-47-10C181.09,125.61,193.08,113.12,193.08,113.12Zm123,95-10-13-1,14-14,2-17-16,1,16-18,4-3-11-10,14-9-3-9-18-3,12-20-6-1-16-9,18-20-38,16,13v-10l13,2,10,13,7-8,15,2,6,14,5-10,9,2,10,16,3-16,13-1,14,13,1-14,13-4,8,8,3-11,19-12Z"/></g></g></svg>